<?xml version="1.0" encoding="utf-8"?>
<!-- Generator: Adobe Illustrator 26.5.0, SVG Export Plug-In . SVG Version: 6.00 Build 0)  -->
<svg version="1.1" id="Calque_1" xmlns="http://www.w3.org/2000/svg" xmlns:xlink="http://www.w3.org/1999/xlink" x="0px" y="0px"
	 viewBox="0 0 1920 1080" style="enable-background:new 0 0 1920 1080;" xml:space="preserve">
<style type="text/css">
	.st0{fill:url(#SVGID_1_);}
	.st1{fill:#FFA300;}
	.st2{fill:#E5E5E5;}
	.st3{fill:#FFFFFF;}
	.st4{fill:#9876CE;}
	.st5{fill:url(#SVGID_00000003798482607114988060000015848025595639390594_);}
	.st6{fill:#590696;}
	.st7{fill:#F8F5FF;}
	.st8{fill:#E0C2FF;}
	.st9{fill:none;}
	.st10{fill:#00C9F7;}
	.st11{fill:#A760FF;}
	.st12{fill:#B485FF;}
	.st13{fill:url(#SVGID_00000025436599990742522430000004903608487486176180_);}
	.st14{fill:#FF9F00;}
	.st15{fill:#DCFCFF;}
	.st16{fill:#1D1D1B;}
</style>

<path class="st3" d="M1088.9,555.9H801.7c-32,0-48.1-38.7-25.4-61.4l143.6-143.6c14-14,36.8-14,50.9,0l143.6,143.6
	C1137,517.1,1121,555.9,1088.9,555.9z"/>
<g>
	<g>
		<path class="st4" d="M959.9,488.7V519c0,0.9-0.7,1.6-1.6,1.6l0,0c-0.9,0-1.6-0.7-1.6-1.6v-30.3c0-0.9,0.7-1.6,1.6-1.6l0,0
			C959.2,487.1,959.9,487.8,959.9,488.7z"/>
		<path class="st4" d="M967.1,495.9c-0.9,0-1.6,0.7-1.6,1.6V519c0,0.9,0.7,1.6,1.6,1.6c0.9,0,1.6-0.7,1.6-1.6v-21.5
			C968.6,496.6,967.9,495.9,967.1,495.9z"/>
		<path class="st4" d="M992.9,498.2c1.9,1.8,2.8,4.5,2.8,7.9V519c0,0.9-0.7,1.6-1.6,1.6l0,0c-0.9,0-1.6-0.7-1.6-1.6v-12.6
			c0-2.7-0.7-4.7-2-6.2c-1.3-1.4-3.2-2.1-5.5-2.1c-2.4,0-4.3,0.8-5.7,2.3c-1.4,1.5-2.1,3.7-2.1,6.6V519c0,0.9-0.7,1.6-1.6,1.6h0
			c-0.9,0-1.6-0.7-1.6-1.6v-21.6c0-0.9,0.7-1.6,1.6-1.6l0,0c0.9,0,1.6,0.7,1.6,1.6v2.6c0.8-1.5,1.9-2.7,3.4-3.5
			c1.5-0.8,3.2-1.2,5-1.2C988.6,495.4,991,496.3,992.9,498.2z"/>
		<path class="st4" d="M1023.4,509.4H1003c0.1,1.9,0.5,3.5,1.4,4.8c0.8,1.3,1.9,2.3,3.2,3c1.3,0.7,2.8,1,4.3,1
			c2.1,0,3.8-0.5,5.2-1.5c1.1-0.8,1.9-1.8,2.4-3c0.2-0.6,0.8-1,1.4-1l0,0c1.1,0,1.9,1.2,1.4,2.2c-0.7,1.4-1.7,2.7-3.1,3.7
			c-2,1.5-4.5,2.3-7.4,2.3c-2.3,0-4.4-0.5-6.2-1.6c-1.8-1-3.3-2.5-4.3-4.4c-1-1.9-1.6-4.2-1.6-6.7c0-2.6,0.5-4.8,1.5-6.7
			c1-1.9,2.5-3.4,4.3-4.4c1.8-1,3.9-1.5,6.3-1.5c2.4,0,4.4,0.5,6.2,1.5c1.8,1,3.1,2.4,4.1,4.1c1,1.7,1.4,3.7,1.4,5.8
			C1023.5,508,1023.5,508.9,1023.4,509.4z M1019.2,502.2c-0.8-1.3-1.8-2.3-3.1-2.9c-1.3-0.7-2.8-1-4.3-1c-2.4,0-4.4,0.8-6,2.3
			c-1.7,1.5-2.6,3.6-2.8,6.4h17.4C1020.4,505,1020,503.5,1019.2,502.2z"/>
		<path class="st4" d="M1029.4,519c-1.3-0.9-2.1-2.1-2.6-3.4c-0.3-0.9,0.4-1.9,1.4-1.9h0.3c0.7,0,1.2,0.4,1.4,1.1
			c0.3,0.9,0.9,1.7,1.7,2.3c1.2,0.9,2.7,1.3,4.7,1.3c1.7,0,3.1-0.4,4-1.2c1-0.8,1.5-1.8,1.5-3c0-0.8-0.3-1.5-0.8-2.1
			c-0.5-0.5-1.2-1-2.1-1.3c-0.8-0.3-2-0.7-3.4-1c-1.8-0.5-3.3-1-4.5-1.4c-1.1-0.5-2.1-1.2-2.9-2.1c-0.8-0.9-1.2-2.2-1.2-3.8
			c0-1.2,0.4-2.3,1.1-3.3c0.7-1,1.7-1.8,3.1-2.4c1.3-0.6,2.8-0.9,4.5-0.9c2.7,0,4.8,0.7,6.4,2c1.2,1,1.9,2.2,2.3,3.7
			c0.3,0.9-0.5,1.9-1.5,1.9h-0.2c-0.7,0-1.3-0.5-1.5-1.2c-0.3-0.9-0.8-1.7-1.5-2.3c-1-0.9-2.5-1.3-4.3-1.3c-1.6,0-2.9,0.4-3.9,1.1
			c-1,0.8-1.5,1.7-1.5,2.8c0,1,0.3,1.8,0.9,2.4c0.6,0.6,1.3,1.1,2.2,1.4c0.9,0.3,2,0.7,3.5,1.2c1.8,0.5,3.2,1,4.3,1.4
			c1.1,0.5,2,1.1,2.7,2c0.8,0.9,1.1,2,1.2,3.5c0,1.3-0.4,2.5-1.1,3.6c-0.7,1-1.7,1.9-3,2.5c-1.3,0.6-2.8,0.9-4.5,0.9
			C1033.5,520.9,1031.2,520.3,1029.4,519z"/>
		
			<linearGradient id="SVGID_00000137820558810801039830000003449362327760558261_" gradientUnits="userSpaceOnUse" x1="964.7507" y1="489.4355" x2="969.3635" y2="489.4355">
			<stop  offset="0" style="stop-color:#FFAB00"/>
			<stop  offset="1" style="stop-color:#FFC900"/>
		</linearGradient>
		<circle style="fill:url(#SVGID_00000137820558810801039830000003449362327760558261_);" cx="967.1" cy="489.4" r="2.3"/>
	</g>
	<g>
		<path class="st6" d="M851.5,519.8c-1.8-0.8-3.2-1.8-4.2-3.3c-1-1.4-1.6-3.1-1.6-5h6.8c0.1,1.3,0.5,2.3,1.4,3.1
			c0.8,0.8,2,1.1,3.4,1.1c1.5,0,2.6-0.4,3.5-1.1c0.8-0.7,1.3-1.6,1.3-2.8c0-0.9-0.3-1.7-0.9-2.3c-0.6-0.6-1.3-1.1-2.1-1.4
			c-0.9-0.3-2-0.7-3.6-1.2c-2.1-0.6-3.7-1.2-5-1.8c-1.3-0.6-2.4-1.5-3.3-2.7c-0.9-1.2-1.4-2.8-1.4-4.8c0-1.9,0.5-3.5,1.4-4.9
			c0.9-1.4,2.2-2.4,3.9-3.2c1.7-0.7,3.6-1.1,5.8-1.1c3.3,0,5.9,0.8,7.9,2.4c2,1.6,3.2,3.8,3.4,6.6h-7c-0.1-1.1-0.5-2-1.4-2.7
			c-0.9-0.7-2-1.1-3.4-1.1c-1.2,0-2.2,0.3-3,0.9c-0.7,0.6-1.1,1.6-1.1,2.8c0,0.8,0.3,1.5,0.8,2.1c0.6,0.6,1.3,1,2.1,1.4
			c0.8,0.3,2,0.7,3.5,1.2c2.1,0.6,3.7,1.2,5,1.8c1.3,0.6,2.4,1.5,3.3,2.7c0.9,1.2,1.4,2.8,1.4,4.7c0,1.7-0.4,3.3-1.3,4.7
			c-0.9,1.4-2.2,2.6-3.8,3.5c-1.7,0.9-3.7,1.3-6,1.3C855.2,520.9,853.3,520.5,851.5,519.8z"/>
		<path class="st6" d="M909.9,500.7h-4.4v19.9h-3c-1.9,0-3.4-1.5-3.4-3.4v-22.9c0-3.1,0.9-5.3,2.6-6.8c1.7-1.4,4.4-2.1,7.9-2v5.3
			c-1.5,0-2.6,0.2-3.2,0.8c-0.6,0.5-0.9,1.5-0.9,2.9v1h4.4V500.7z"/>
		<path class="st6" d="M918.4,500.7v12.1c0,0.8,0.2,1.5,0.6,1.8c0.4,0.4,1.1,0.6,2.1,0.6h2.9v5.3h-4c-5.3,0-8-2.6-8-7.8v-19.2
			c0-1.5,1.2-2.8,2.8-2.8h3.6v4.7h4.6l2,5.2H918.4z"/>
		<path class="st6" d="M951.9,495.5l-14.5,34.5c-0.6,1.4-2,2.4-3.6,2.4h-4.2l5.4-12.5l-10-24.4h4.1c1.8,0,3.5,1.1,4.1,2.8l5.4,14.7
			l5.7-15.3c0.5-1.3,1.8-2.2,3.2-2.2H951.9z"/>
		<g>
			<path class="st6" d="M883.7,494.6c-7.2,0-13,5.8-13,13s5.8,13,13,13c7.2,0,13-5.8,13-13S890.9,494.6,883.7,494.6z M883.7,514.1
				c-3.6,0-6.6-2.9-6.6-6.6c0-3.6,2.9-6.6,6.6-6.6s6.6,2.9,6.6,6.6C890.3,511.2,887.3,514.1,883.7,514.1z"/>
		</g>
	</g>
	<path class="st7" d="M901.1,431.1c4.8,19.7,33.8,4,40.2,21.7c1.5,4.2-1.3,14.6-12.4,22.8c14.9-2.5,50.6-11.5,43.1-25.7
		S910.8,431.1,901.1,431.1z"/>
	<g>
		<path class="st7" d="M960.5,403.7c-18.1,5.2-33,7.4-43.3,15.8c-9.5,7.7,10,20.1,44.6,12.3C925.5,431.7,943,407.2,960.5,403.7z"/>
	</g>
	<g>
		<g>
			<path class="st8" d="M979,448.9c-2.5-28-48.6-11.8-56-19.3c-1.4-1.4-1.6-3.2-1-4.6c2.1-5.4,18.2-12,38.8-14.4
				c1.9-0.2,3.2-1.9,3-3.8c-0.2-1.7-1.7-3-3.3-3c0,0-0.1,0-0.2,0c-0.1,0-0.2,0-0.2,0c-5.8,0.7-11.1,1.8-16,3.2
				c-18.8,4.6-46.6,13.8-42.5,26.6c3.9,12,51.1,0.7,53.2,17.3c1.6,12.7-35.7,23.3-26.3,25.7C941.2,476.8,980.7,467.4,979,448.9z"/>
			<g>
				<path class="st9" d="M925.5,429.8c1.6,0.1,3.4,0.2,5.2,0.3C928.9,430,927.2,429.9,925.5,429.8z"/>
				<path class="st10" d="M928,476.4c0,0,0-0.1,0.1-0.2C928,476.3,927.9,476.3,928,476.4z"/>
				<path class="st11" d="M967.6,438.6c-1.4-7.7-20.5-7.9-36.8-8.6c-1.9-0.1-3.6-0.1-5.2-0.3c-9.2-0.5-16.8-1.6-18.3-4.9
					c-0.7-1.5-0.7-2.9-0.2-4.2c-4.6,3.5-7,7.6-5.4,12.2c4.3,11.8,55,1.3,60,16.2C965.5,444.9,968,441.2,967.6,438.6z"/>
				<path class="st11" d="M928,476.4c0.8,1.8,64-4.2,61.6-27.9c0-0.1,0-0.2-0.1-0.4C973.4,463.4,928.6,477.5,928,476.4z"/>
				<path class="st10" d="M907.2,424.9c1.5,3.3,9,4.4,18.3,4.9c-6.6-0.5-11.2-1.6-11.6-4.3c-1.7-9.7,28.5-17.8,46.2-21.7
					c5.3-1.2-37.1,4.7-53.1,16.9C906.5,422,906.5,423.4,907.2,424.9z"/>
				<path class="st6" d="M907.2,424.9c1.5,3.3,9,4.4,18.3,4.9c-6.6-0.5-11.2-1.6-11.6-4.3c-1.7-9.7,28.5-17.8,46.2-21.7
					c5.3-1.2-37.1,4.7-53.1,16.9C906.5,422,906.5,423.4,907.2,424.9z"/>
				<path class="st12" d="M930.7,430c16.4,0.7,35.5,0.8,36.8,8.6c0.5,2.6-2,6.3-5.9,10.4c0.2,0.4,0.3,0.9,0.3,1.4
					c1.7,12.4-32.2,23.8-33.9,25.8c-0.1,0.1-0.1,0.1-0.1,0.2c0.7,1.1,45.4-13,61.5-28.3C987.1,428.7,952.3,430.7,930.7,430z"/>
				<path class="st6" d="M930.7,439.8c8.7,0.3,33.8,1.8,34.3,10.8c0.3,6.1-6.1,14.1-37.1,25.8C986.9,467.2,990.1,436.8,930.7,439.8z
					"/>
			</g>
			
				<linearGradient id="SVGID_00000155832295471726326150000005375583581346046875_" gradientUnits="userSpaceOnUse" x1="966.1936" y1="405.0894" x2="975.8788" y2="405.0894">
				<stop  offset="0" style="stop-color:#FFAB00"/>
				<stop  offset="1" style="stop-color:#FFC900"/>
			</linearGradient>
			<circle style="fill:url(#SVGID_00000155832295471726326150000005375583581346046875_);" cx="971" cy="405.1" r="4.8"/>
			<path class="st14" d="M967,404.2c0-1,0.3-1.9,0.8-2.6c-1,0.9-1.6,2.1-1.6,3.6c0,2.7,2.2,4.8,4.8,4.8c1.7,0,3.2-0.9,4.1-2.2
				c-0.9,0.8-2,1.3-3.3,1.3C969.1,409,967,406.8,967,404.2z"/>
		</g>
		<circle class="st15" cx="971.8" cy="403" r="1.2"/>
	</g>
</g>

</svg>
