<svg width="1761" height="797" viewBox="0 0 1761 797" fill="none" xmlns="http://www.w3.org/2000/svg">
<path d="M1871.65 -377.235C1815.25 -358.04 1704.02 -274.437 1710.28 -93.5823C1718.1 132.487 1888.71 273.958 1931.37 487.23C1962.85 644.641 1958.38 1038.9 1766.44 1204.54" stroke="white" stroke-opacity="0.34" stroke-width="7.78561"/>
<path d="M1790.43 -338.735C1734.03 -319.54 1622.79 -235.937 1629.05 -55.0823C1636.87 170.987 1807.49 312.458 1850.14 525.73C1881.63 683.141 1877.16 1077.4 1685.21 1243.04" stroke="white" stroke-opacity="0.34" stroke-width="7.78561"/>
<path d="M1708.11 -302.637C1651.71 -283.442 1540.47 -199.839 1546.73 -18.9841C1554.55 207.085 1725.17 348.556 1767.82 561.828C1799.31 719.239 1794.84 1113.49 1602.89 1279.14" stroke="white" stroke-opacity="0.34" stroke-width="7.78561"/>
<path d="M1624.66 -269.212C1568.27 -250.018 1457.03 -166.415 1463.29 14.4402C1471.11 240.509 1641.73 381.98 1684.38 595.253C1715.86 752.664 1711.4 1146.92 1519.45 1312.56" stroke="white" stroke-opacity="0.34" stroke-width="7.78561"/>
<path d="M1540.07 -238.811C1483.68 -219.616 1372.44 -136.014 1378.7 44.8415C1386.52 270.911 1557.14 412.381 1599.79 625.654C1631.27 783.065 1626.81 1177.32 1434.86 1342.96" stroke="white" stroke-opacity="0.34" stroke-width="7.78561"/>
<path d="M1454.32 -211.873C1397.92 -192.679 1286.69 -109.076 1292.94 71.7795C1300.76 297.848 1471.38 439.319 1514.04 652.592C1545.52 810.003 1541.05 1204.26 1349.1 1369.9" stroke="white" stroke-opacity="0.34" stroke-width="7.78561"/>
<path d="M1367.4 -188.957C1311 -169.762 1199.77 -86.1596 1206.03 94.6955C1213.85 320.765 1384.46 462.235 1427.12 675.508C1458.6 832.919 1454.13 1227.17 1262.19 1392.81" stroke="white" stroke-opacity="0.34" stroke-width="7.78561"/>
<path d="M1279.37 -170.773C1222.97 -151.578 1111.74 -67.9755 1118 112.88C1125.82 338.949 1296.43 480.419 1339.09 693.692C1370.57 851.103 1366.1 1245.36 1174.16 1411" stroke="white" stroke-opacity="0.34" stroke-width="7.78561"/>
<path d="M1190.37 -158.221C1133.97 -139.026 1022.73 -55.4233 1028.99 125.432C1036.81 351.501 1207.43 492.972 1250.08 706.244C1281.57 863.655 1277.1 1257.91 1085.15 1423.55" stroke="white" stroke-opacity="0.34" stroke-width="7.78561"/>
<path d="M1100.67 -152.429C1044.27 -133.235 933.034 -49.6318 939.29 131.223C947.11 357.292 1117.73 498.763 1160.38 712.036C1191.87 869.447 1187.4 1263.7 995.452 1429.34" stroke="white" stroke-opacity="0.34" stroke-width="7.78561"/>
<path d="M1010.81 -154.785C954.411 -135.591 843.178 -51.9878 849.434 128.867C857.254 354.936 1027.87 496.407 1070.53 709.68C1102.01 867.091 1097.54 1261.34 905.596 1426.99" stroke="white" stroke-opacity="0.34" stroke-width="7.78561"/>
<path d="M921.742 -166.892C865.343 -147.697 754.109 -64.0942 760.365 116.761C768.185 342.83 938.804 484.301 981.458 697.573C1012.94 854.985 1008.47 1249.24 816.527 1414.88" stroke="white" stroke-opacity="0.34" stroke-width="7.78561"/>
<path d="M834.976 -190.378C778.577 -171.184 667.344 -87.581 673.6 93.2742C681.42 319.343 852.038 460.814 894.692 674.087C926.175 831.498 921.707 1225.75 729.762 1391.39" stroke="white" stroke-opacity="0.34" stroke-width="7.78561"/>
<path d="M737.734 -232.819C681.336 -213.625 570.102 -130.022 576.358 50.8332C584.178 276.902 754.796 418.373 797.451 631.646C828.933 789.057 824.465 1183.31 632.52 1348.95" stroke="white" stroke-opacity="0.34" stroke-width="7.78561"/>
<path d="M654.419 -266.559C598.02 -247.365 486.787 -163.762 493.043 17.0935C500.863 243.162 671.481 384.633 714.135 597.906C745.618 755.317 741.15 1149.57 549.205 1315.21" stroke="white" stroke-opacity="0.34" stroke-width="7.78561"/>
<path d="M568.602 -293.3C512.204 -274.105 400.97 -190.502 407.226 -9.64723C415.046 216.422 585.664 357.893 628.319 571.165C659.801 728.576 655.333 1122.83 463.388 1288.47" stroke="white" stroke-opacity="0.34" stroke-width="7.78561"/>
<path d="M480.872 -312.877C424.474 -293.682 313.24 -210.08 319.496 -29.2244C327.316 196.845 497.934 338.315 540.589 551.588C572.071 708.999 567.603 1103.25 375.658 1268.89" stroke="white" stroke-opacity="0.34" stroke-width="7.78561"/>
<path d="M391.846 -325.293C335.447 -306.098 224.214 -222.496 230.47 -41.6404C238.29 184.429 408.908 325.899 451.562 539.172C483.045 696.583 478.577 1090.84 286.632 1256.48" stroke="white" stroke-opacity="0.34" stroke-width="7.78561"/>
<path d="M302.123 -330.703C245.724 -311.509 134.49 -227.906 140.746 -47.0505C148.566 179.018 319.184 320.489 361.839 533.762C393.321 691.173 388.854 1085.43 196.908 1251.07" stroke="white" stroke-opacity="0.34" stroke-width="7.78561"/>
<path d="M212.245 -329.386C155.846 -310.191 44.6124 -226.588 50.8684 -45.7332C58.6884 180.336 229.306 321.807 271.961 535.079C303.443 692.49 298.976 1086.74 107.03 1252.39" stroke="white" stroke-opacity="0.34" stroke-width="7.78561"/>
<path d="M122.687 -321.695C66.2885 -302.501 -44.945 -218.898 -38.689 -38.0427C-30.869 188.026 139.749 329.497 182.404 542.77C213.886 700.181 209.418 1094.43 17.4728 1260.08" stroke="white" stroke-opacity="0.34" stroke-width="7.78561"/>
<path d="M33.8458 -308.025C-22.5529 -288.831 -133.786 -205.228 -127.53 -24.3728C-119.71 201.696 50.9077 343.167 93.5622 556.44C125.044 713.851 120.577 1108.1 -71.3686 1273.75" stroke="white" stroke-opacity="0.34" stroke-width="7.78561"/>
<path d="M-53.9553 -288.771C-110.354 -269.576 -221.588 -185.973 -215.332 -5.11793C-207.512 220.951 -36.8934 362.422 5.7611 575.694C37.2433 733.106 32.7756 1127.36 -159.17 1293" stroke="white" stroke-opacity="0.34" stroke-width="7.78561"/>
</svg>
